<?xml version="1.0" encoding="utf-8"?>
<!-- Generator: Adobe Illustrator 15.0.0, SVG Export Plug-In . SVG Version: 6.00 Build 0)  -->
<!DOCTYPE svg PUBLIC "-//W3C//DTD SVG 1.1//EN" "http://www.w3.org/Graphics/SVG/1.1/DTD/svg11.dtd">
<svg version="1.1" id="Layer_1" xmlns="http://www.w3.org/2000/svg" xmlns:xlink="http://www.w3.org/1999/xlink" x="0px" y="0px"
	 width="300px" height="300px" viewBox="0 0 300 300" enable-background="new 0 0 300 300" xml:space="preserve">
<g>
	<g>
		<g>
			<g>
				<path fill="#0B94CF" d="M149.999,50.405c-27.671,0-50.103,22.342-50.103,49.903c0,27.558,22.432,49.897,50.103,49.897
					s50.102-22.34,50.102-49.897C200.101,72.747,177.67,50.405,149.999,50.405z M149.999,146.908
					c-21.727,0-39.335-17.541-39.335-39.176c0-21.637,17.609-39.18,39.335-39.18c21.725,0,39.335,17.543,39.335,39.18
					C189.334,129.367,171.724,146.908,149.999,146.908z"/>
			</g>
			<g>
				<g>
					<path fill="#ED4237" d="M149.999,249.596c27.671,0,50.102-22.344,50.102-49.9c0-27.559-22.431-49.901-50.102-49.901
						s-50.103,22.342-50.103,49.901C99.896,227.252,122.328,249.596,149.999,249.596z M149.999,153.092
						c21.725,0,39.335,17.545,39.335,39.182c0,21.635-17.61,39.176-39.335,39.176c-21.727,0-39.335-17.541-39.335-39.176
						C110.664,170.637,128.272,153.092,149.999,153.092z"/>
				</g>
			</g>
		</g>
		<g>
			<g>
				<g>
					<path fill="#4DB448" d="M53.078,129.625c-8.896,26.095,5.13,54.435,31.331,63.298c26.2,8.863,54.65-5.109,63.552-31.205
						c8.895-26.098-5.129-54.436-31.33-63.296C90.432,89.561,61.976,103.529,53.078,129.625z M144.82,160.656
						c-6.983,20.49-29.323,31.459-49.895,24.5c-20.571-6.957-31.583-29.209-24.597-49.696c6.987-20.488,29.325-31.456,49.898-24.499
						C140.797,117.92,151.81,140.166,144.82,160.656z"/>
				</g>
			</g>
			<g>
				<path fill="#F68526" d="M183.367,98.423c-26.199,8.86-40.226,37.198-31.327,63.296c8.901,26.096,37.351,40.068,63.551,31.205
					c26.199-8.863,40.229-37.203,31.331-63.298C238.023,103.529,209.567,89.561,183.367,98.423z M179.771,110.961
					c20.573-6.958,42.908,4.01,49.897,24.499c6.986,20.487-4.026,42.739-24.597,49.696c-20.572,6.959-42.911-4.01-49.896-24.5
					C148.188,140.166,159.202,117.92,179.771,110.961z"/>
			</g>
		</g>
	</g>
	<g>
		<g>
			<g>
				<path fill="#98D9F0" d="M149.999,81.875c-18.927,0-34.271,15.281-34.271,34.135c0,18.85,15.344,34.135,34.271,34.135
					c18.928,0,34.271-15.285,34.271-34.135C184.271,97.156,168.927,81.875,149.999,81.875z M149.999,147.885
					c-14.862,0-26.907-11.996-26.907-26.801c0-14.797,12.045-26.798,26.907-26.798c14.858,0,26.906,12.001,26.906,26.798
					C176.905,135.889,164.857,147.885,149.999,147.885z"/>
			</g>
			<g>
				<path fill="#F38194" d="M149.999,218.127c18.928,0,34.271-15.283,34.271-34.133c0-18.852-15.344-34.135-34.271-34.135
					c-18.927,0-34.271,15.284-34.271,34.135C115.729,202.844,131.072,218.127,149.999,218.127z M149.999,152.115
					c14.858,0,26.906,12,26.906,26.801s-12.048,26.801-26.906,26.801c-14.862,0-26.907-12-26.907-26.801
					S135.137,152.115,149.999,152.115z"/>
			</g>
		</g>
		<g>
			<g>
				<g>
					<path fill="#C1D83F" d="M83.703,136.063c-6.085,17.849,3.506,37.236,21.43,43.298c17.919,6.064,37.384-3.496,43.469-21.346
						c6.088-17.85-3.507-37.234-21.429-43.298C109.252,108.656,89.788,118.213,83.703,136.063z M146.458,157.289
						c-4.778,14.018-20.059,21.518-34.13,16.76c-14.071-4.76-21.603-19.98-16.824-33.994c4.777-14.014,20.058-21.52,34.129-16.76
						C143.703,128.055,151.235,143.275,146.458,157.289z"/>
				</g>
			</g>
			<g>
				<path fill="#FCBA1B" d="M172.827,114.718c-17.925,6.063-27.517,25.448-21.434,43.298c6.088,17.85,25.552,27.41,43.472,21.346
					c17.923-6.062,27.517-25.449,21.432-43.298C210.211,118.213,190.744,108.656,172.827,114.718z M170.366,123.295
					c14.07-4.76,29.351,2.746,34.13,16.76c4.779,14.013-2.753,29.234-16.824,33.994c-14.072,4.758-29.353-2.742-34.134-16.76
					C148.761,143.275,156.294,128.055,170.366,123.295z"/>
			</g>
		</g>
	</g>
</g>
</svg>
